<svg width="604" height="184" viewBox="0 0 604 184" fill="none" xmlns="http://www.w3.org/2000/svg">
<g clip-path="url(#clip0_169_121)">
<path d="M241.488 122.986C239.722 122.986 238.366 122.481 237.419 121.472C236.473 120.462 236 119.074 236 117.308V60.4363C236 58.6068 236.505 57.2189 237.514 56.2727C238.523 55.2633 239.911 54.7586 241.678 54.7586C243.255 54.7586 244.485 55.074 245.368 55.7049C246.315 56.2727 247.166 57.282 247.923 58.733L271.296 101.978H268.268L291.642 58.733C292.399 57.282 293.219 56.2727 294.102 55.7049C294.985 55.074 296.215 54.7586 297.792 54.7586C299.559 54.7586 300.915 55.2633 301.861 56.2727C302.808 57.2189 303.281 58.6068 303.281 60.4363V117.308C303.281 119.074 302.808 120.462 301.861 121.472C300.978 122.481 299.622 122.986 297.792 122.986C296.026 122.986 294.67 122.481 293.723 121.472C292.777 120.462 292.304 119.074 292.304 117.308V73.4951H294.386L274.514 109.738C273.883 110.81 273.221 111.599 272.527 112.104C271.833 112.608 270.886 112.861 269.688 112.861C268.489 112.861 267.511 112.608 266.754 112.104C265.997 111.536 265.335 110.747 264.767 109.738L244.706 73.4004H246.977V117.308C246.977 119.074 246.504 120.462 245.557 121.472C244.674 122.481 243.318 122.986 241.488 122.986Z" fill="white"/>
<path d="M328.562 140.019C327.174 140.019 326.039 139.64 325.156 138.883C324.272 138.189 323.736 137.243 323.547 136.045C323.421 134.846 323.642 133.584 324.209 132.259L330.644 117.97V122.891L313.422 83.0525C312.854 81.6647 312.665 80.3714 312.854 79.1728C313.043 77.9741 313.611 77.0279 314.557 76.3339C315.567 75.5769 316.923 75.1984 318.626 75.1984C320.077 75.1984 321.244 75.5453 322.128 76.2393C323.011 76.8701 323.799 78.1003 324.493 79.9298L337.268 111.82H334.429L347.488 79.8352C348.182 78.0688 349.002 76.8701 349.948 76.2393C350.895 75.5453 352.156 75.1984 353.733 75.1984C355.121 75.1984 356.225 75.5769 357.045 76.3339C357.866 77.0279 358.37 77.9741 358.56 79.1728C358.749 80.3083 358.528 81.57 357.897 82.9579L334.902 135.477C334.082 137.243 333.199 138.442 332.253 139.073C331.306 139.704 330.076 140.019 328.562 140.019Z" fill="white"/>
<path d="M390.768 123.175C387.992 123.175 385.216 122.954 382.441 122.513C379.665 122.134 377.047 121.535 374.586 120.715C372.126 119.832 369.918 118.759 367.962 117.497C366.827 116.74 366.038 115.826 365.597 114.753C365.155 113.681 364.997 112.64 365.124 111.63C365.313 110.558 365.723 109.643 366.354 108.886C367.048 108.066 367.899 107.561 368.909 107.372C369.918 107.183 371.022 107.467 372.221 108.224C374.997 109.864 377.93 111.063 381.021 111.82C384.112 112.577 387.361 112.955 390.768 112.955C395.752 112.955 399.379 112.135 401.65 110.495C403.921 108.792 405.057 106.615 405.057 103.965C405.057 101.757 404.237 100.023 402.597 98.7609C401.019 97.4992 398.275 96.4583 394.364 95.6381L383.955 93.4617C377.962 92.2 373.482 90.0866 370.517 87.1216C367.616 84.0935 366.165 80.1191 366.165 75.1984C366.165 72.1072 366.795 69.2999 368.057 66.7764C369.319 64.253 371.085 62.0765 373.356 60.2471C375.69 58.4176 378.435 57.0297 381.589 56.0834C384.806 55.074 388.339 54.5693 392.187 54.5693C395.973 54.5693 399.568 55.0425 402.975 55.9888C406.382 56.935 409.441 58.3229 412.154 60.1524C413.163 60.8464 413.826 61.698 414.141 62.7074C414.52 63.7168 414.614 64.7261 414.425 65.7355C414.236 66.6818 413.794 67.5019 413.1 68.1959C412.406 68.8898 411.523 69.2999 410.451 69.426C409.441 69.5522 408.274 69.2368 406.949 68.4797C404.615 67.1549 402.25 66.2087 399.852 65.6409C397.455 65.0731 394.869 64.7892 392.093 64.7892C389.191 64.7892 386.699 65.1993 384.617 66.0194C382.535 66.8395 380.927 68.0066 379.791 69.5206C378.719 70.9716 378.182 72.7065 378.182 74.7252C378.182 76.9963 378.939 78.8258 380.453 80.2137C381.968 81.5385 384.554 82.5794 388.213 83.3364L398.528 85.5129C404.773 86.8377 409.41 88.9195 412.438 91.7584C415.529 94.5972 417.075 98.3824 417.075 103.114C417.075 106.142 416.444 108.886 415.182 111.346C413.984 113.807 412.217 115.92 409.883 117.687C407.612 119.453 404.868 120.809 401.65 121.756C398.433 122.702 394.805 123.175 390.768 123.175Z" fill="white"/>
<path d="M442.138 123.175C436.902 123.175 432.959 121.693 430.309 118.728C427.66 115.699 426.335 111.283 426.335 105.48V60.7202C426.335 58.7645 426.84 57.282 427.849 56.2727C428.858 55.2633 430.309 54.7586 432.202 54.7586C434.095 54.7586 435.546 55.2633 436.555 56.2727C437.627 57.282 438.164 58.7645 438.164 60.7202V104.912C438.164 107.814 438.763 109.959 439.962 111.346C441.223 112.734 442.99 113.428 445.261 113.428C445.765 113.428 446.239 113.428 446.68 113.428C447.122 113.365 447.563 113.302 448.005 113.239C448.888 113.113 449.487 113.365 449.803 113.996C450.118 114.564 450.276 115.762 450.276 117.592C450.276 119.169 449.961 120.399 449.33 121.282C448.699 122.166 447.658 122.702 446.207 122.891C445.576 122.954 444.914 123.017 444.22 123.08C443.526 123.144 442.832 123.175 442.138 123.175Z" fill="white"/>
<path d="M471.789 123.175C468.445 123.175 465.448 122.544 462.799 121.282C460.212 119.958 458.162 118.191 456.648 115.983C455.197 113.775 454.471 111.283 454.471 108.508C454.471 105.101 455.355 102.42 457.121 100.464C458.887 98.4455 461.758 96.9945 465.732 96.1113C469.707 95.2281 475.037 94.7865 481.725 94.7865H486.456V101.6H481.819C477.908 101.6 474.785 101.789 472.451 102.168C470.117 102.546 468.445 103.208 467.436 104.155C466.489 105.038 466.016 106.3 466.016 107.94C466.016 110.022 466.742 111.725 468.193 113.05C469.644 114.375 471.662 115.037 474.249 115.037C476.331 115.037 478.16 114.564 479.737 113.618C481.378 112.608 482.671 111.252 483.617 109.549C484.563 107.845 485.037 105.89 485.037 103.682V92.7993C485.037 89.645 484.343 87.3739 482.955 85.986C481.567 84.5981 479.233 83.9042 475.952 83.9042C474.123 83.9042 472.135 84.125 469.991 84.5666C467.909 85.0082 465.701 85.7652 463.367 86.8377C462.168 87.4055 461.095 87.5632 460.149 87.3108C459.266 87.0585 458.572 86.5538 458.067 85.7968C457.563 84.9767 457.31 84.0935 457.31 83.1472C457.31 82.2009 457.563 81.2861 458.067 80.4029C458.572 79.4567 459.424 78.7627 460.622 78.3211C463.524 77.1225 466.3 76.2708 468.95 75.7661C471.662 75.2615 474.123 75.0091 476.331 75.0091C480.873 75.0091 484.595 75.7031 487.497 77.0909C490.462 78.4788 492.67 80.5922 494.121 83.4311C495.572 86.2068 496.297 89.8027 496.297 94.2187V116.93C496.297 118.885 495.824 120.399 494.878 121.472C493.932 122.481 492.575 122.986 490.809 122.986C489.042 122.986 487.655 122.481 486.645 121.472C485.699 120.399 485.226 118.885 485.226 116.93V112.387H485.983C485.541 114.595 484.658 116.52 483.333 118.16C482.071 119.737 480.463 120.967 478.507 121.85C476.551 122.733 474.312 123.175 471.789 123.175Z" fill="white"/>
<path d="M529.689 123.175C524.832 123.175 520.605 122.197 517.009 120.242C513.413 118.223 510.637 115.384 508.682 111.725C506.726 108.066 505.748 103.776 505.748 98.8555C505.748 95.1335 506.285 91.8215 507.357 88.9195C508.493 85.9545 510.101 83.4626 512.183 81.4439C514.265 79.362 516.788 77.7849 519.753 76.7124C522.718 75.5769 526.03 75.0091 529.689 75.0091C531.771 75.0091 534.011 75.293 536.408 75.8608C538.868 76.4285 541.171 77.3748 543.316 78.6996C544.325 79.3305 544.988 80.0875 545.303 80.9707C545.618 81.8539 545.682 82.7687 545.492 83.7149C545.303 84.5981 544.893 85.3867 544.262 86.0807C543.694 86.7115 542.969 87.1216 542.086 87.3108C541.203 87.437 540.225 87.2162 539.152 86.6484C537.764 85.8283 536.345 85.229 534.894 84.8505C533.443 84.4089 532.055 84.1881 530.73 84.1881C528.648 84.1881 526.819 84.5351 525.242 85.229C523.665 85.8599 522.308 86.8061 521.173 88.0679C520.1 89.2665 519.28 90.7805 518.712 92.61C518.145 94.4395 517.861 96.5529 517.861 98.9501C517.861 103.618 518.965 107.309 521.173 110.022C523.444 112.671 526.63 113.996 530.73 113.996C532.055 113.996 533.411 113.807 534.799 113.428C536.25 113.05 537.701 112.45 539.152 111.63C540.225 111.063 541.171 110.873 541.991 111.063C542.874 111.252 543.6 111.693 544.168 112.387C544.735 113.018 545.082 113.807 545.208 114.753C545.335 115.636 545.208 116.52 544.83 117.403C544.514 118.286 543.884 119.011 542.937 119.579C540.856 120.841 538.648 121.756 536.313 122.323C533.979 122.891 531.771 123.175 529.689 123.175Z" fill="white"/>
<path d="M558.805 122.986C556.912 122.986 555.461 122.481 554.452 121.472C553.442 120.399 552.938 118.885 552.938 116.93V60.7202C552.938 58.7645 553.442 57.282 554.452 56.2727C555.461 55.2633 556.912 54.7586 558.805 54.7586C560.697 54.7586 562.148 55.2633 563.158 56.2727C564.23 57.282 564.766 58.7645 564.766 60.7202V95.6381H564.956L580.569 79.1728C581.831 77.9111 582.935 76.9332 583.881 76.2393C584.828 75.5453 586.121 75.1984 587.761 75.1984C589.401 75.1984 590.631 75.64 591.452 76.5232C592.335 77.3433 592.776 78.3526 592.776 79.5513C592.776 80.7499 592.209 81.9485 591.073 83.1472L574.608 100.559V95.6381L592.682 115.132C593.817 116.33 594.322 117.56 594.196 118.822C594.133 120.021 593.628 121.03 592.682 121.85C591.735 122.607 590.537 122.986 589.086 122.986C587.319 122.986 585.9 122.639 584.828 121.945C583.818 121.251 582.683 120.21 581.421 118.822L564.956 101.6H564.766V116.93C564.766 120.967 562.779 122.986 558.805 122.986Z" fill="white"/>
<g clip-path="url(#clip1_169_121)">
<path d="M173.171 0H87.3045C79.5377 0 73.353 6.08615 73.353 13.5877V83.5077H173.027C180.65 83.5077 186.834 77.4215 186.834 69.92V13.5877C186.978 6.08615 180.794 0 173.171 0Z" fill="#92C83E"/>
<path d="M103.701 48.4062C107.434 48.4062 110.461 45.4278 110.461 41.7539C110.461 38.0799 107.434 35.1016 103.701 35.1016C99.9675 35.1016 96.9409 38.0799 96.9409 41.7539C96.9409 45.4278 99.9675 48.4062 103.701 48.4062Z" fill="white"/>
<path d="M130.165 48.4062C133.899 48.4062 136.925 45.4278 136.925 41.7539C136.925 38.0799 133.899 35.1016 130.165 35.1016C126.432 35.1016 123.405 38.0799 123.405 41.7539C123.405 45.4278 126.432 48.4062 130.165 48.4062Z" fill="white"/>
<path d="M156.63 48.4062C160.364 48.4062 163.39 45.4278 163.39 41.7539C163.39 38.0799 160.364 35.1016 156.63 35.1016C152.897 35.1016 149.87 38.0799 149.87 41.7539C149.87 45.4278 152.897 48.4062 156.63 48.4062Z" fill="white"/>
<path d="M14.2392 99.643C6.6163 99.643 0.431641 105.729 0.431641 113.231V170.271C0.431641 177.772 6.6163 183.858 14.2392 183.858H100.105C107.728 183.858 113.913 177.772 113.913 170.271V99.5015H14.2392V99.643Z" fill="#FBB03B"/>
<path d="M30.6355 148.474C34.3689 148.474 37.3954 145.495 37.3954 141.821C37.3954 138.148 34.3689 135.169 30.6355 135.169C26.902 135.169 23.8755 138.148 23.8755 141.821C23.8755 145.495 26.902 148.474 30.6355 148.474Z" fill="white"/>
<path d="M57.1003 148.474C60.8337 148.474 63.8603 145.495 63.8603 141.821C63.8603 138.148 60.8337 135.169 57.1003 135.169C53.3669 135.169 50.3403 138.148 50.3403 141.821C50.3403 145.495 53.3669 148.474 57.1003 148.474Z" fill="white"/>
<path d="M83.5647 148.474C87.2981 148.474 90.3246 145.495 90.3246 141.821C90.3246 138.148 87.2981 135.169 83.5647 135.169C79.8312 135.169 76.8047 138.148 76.8047 141.821C76.8047 145.495 79.8312 148.474 83.5647 148.474Z" fill="white"/>
<path d="M57.1002 55.4831V83.6492H28.622C12.8008 83.6492 0 71.0523 0 55.4831C0 39.9138 12.8008 27.3169 28.622 27.3169C44.4432 27.3169 57.1002 40.0554 57.1002 55.4831Z" fill="#ED1E79"/>
<path d="M129.878 127.809V99.6431H158.5C174.321 99.6431 187.122 112.24 187.122 127.809C187.122 143.378 174.321 155.975 158.5 155.975C142.679 155.975 129.878 143.237 129.878 127.809Z" fill="#3FA9F5"/>
</g>
</g>
<defs>
<clipPath id="clip0_169_121">
<rect width="604" height="184" fill="white"/>
</clipPath>
<clipPath id="clip1_169_121">
<rect width="186.978" height="184" fill="white"/>
</clipPath>
</defs>
</svg>
